<svg id="Capa_1" data-name="Capa 1" xmlns="http://www.w3.org/2000/svg" viewBox="0 0 178 232.07"><defs><style>.cls-1{fill:#fff;}</style></defs><path class="cls-1" d="M176.78,128.88l.95,2.14a3.18,3.18,0,0,1,3.64,4.83s0,0,0,.06a3.37,3.37,0,0,1-.48.52l-.13.12a2.86,2.86,0,0,1-.69.43l-24.33,11a3.23,3.23,0,0,1-4.26-1.6,3.47,3.47,0,0,1-.19-.6c0-.09,0-.18,0-.27s0-.22,0-.32,0-.24,0-.36a1.79,1.79,0,0,0,0-.23c0-.15.06-.28.1-.42a.5.5,0,0,1,0-.13,2.76,2.76,0,0,1,.19-.46l0-.06a2.8,2.8,0,0,1,.3-.46h0a3.2,3.2,0,0,1,.87-.76l-.95-2.13Z" transform="translate(-36 -11.09)"/><path class="cls-1" d="M141.07,116.83l-.85-1.89a3.2,3.2,0,0,1-2.31-6l24.34-11a3.21,3.21,0,0,1,4.25,1.6,3.24,3.24,0,0,1,0,2.66,1.19,1.19,0,0,1-.08.16l-.15.27c-.09.13-.19.26-.29.38l-.13.13-.3.26-.14.1-.19.13.84,1.88Z" transform="translate(-36 -11.09)"/><path class="cls-1" d="M127.16,132.64a124.94,124.94,0,0,0,16.44-9.19l.37-.22L142.05,119h0l25-11.25,8.57,19-25,11.25-1.81-4a2.9,2.9,0,0,1-.41.16,123.32,123.32,0,0,0-17.77,6.23c0-.08,0-.16-.08-.24l-3.28-7.27Z" transform="translate(-36 -11.09)"/><path class="cls-1" d="M128.83,141.23a1.53,1.53,0,0,1-.17-.27l-3.28-7.27c0-.1-.06-.2-.09-.3-14.64,6-26.41,7.29-41.9,14.68V37.59c0-17.94,16.28-21.91,16.28-21.91S90,11.09,73.8,11.09,52.31,13,52.31,13s14.78,7.09,14.78,9.8v131c0,9.42-9,7.93-12.54,9.07s-5.84,5.78-5.84,5.78H73.78l.09-.19C101.17,161,110.43,150.29,128.83,141.23Z" transform="translate(-36 -11.09)"/><path class="cls-1" d="M167,154h23.67l2.36,5.82s5.48,1,6.62,3,1.37,5.86,1.37,5.86H133s.23-3.88,1.37-5.86,6.62-3,6.62-3L143.3,154Z" transform="translate(-36 -11.09)"/><path class="cls-1" d="M43.2,184.4V195h8.87v1.8H43.2v7.8a3.37,3.37,0,0,0,.24,1.39,2,2,0,0,0,.65.8,2.4,2.4,0,0,0,1,.36,7.27,7.27,0,0,0,1.16.09h1.22v1.55H36v-1.55h.47a7.08,7.08,0,0,0,1.15-.08,2.38,2.38,0,0,0,1-.33,1.68,1.68,0,0,0,.66-.75,3,3,0,0,0,.24-1.3v-18.2a3,3,0,0,0-.24-1.3,1.82,1.82,0,0,0-.66-.76,2.25,2.25,0,0,0-1-.35,7.08,7.08,0,0,0-1.15-.08H36v-1.55H54.53L54.7,189H52.8l-.18-1.58a5,5,0,0,0-.28-1.18,3.06,3.06,0,0,0-.62-1,2.91,2.91,0,0,0-1-.64,4,4,0,0,0-1.47-.25Z" transform="translate(-36 -11.09)"/><path class="cls-1" d="M57.61,207.27a7.21,7.21,0,0,0,1.16-.08,2.43,2.43,0,0,0,1-.33,1.74,1.74,0,0,0,.66-.75,3,3,0,0,0,.24-1.3V193.16a3,3,0,0,0-.24-1.3,1.89,1.89,0,0,0-.66-.76,2.46,2.46,0,0,0-1-.36,7.18,7.18,0,0,0-1.16-.09h-.1v-1.54h6.57v15.52a3.37,3.37,0,0,0,.24,1.39,2,2,0,0,0,.64.8,2.4,2.4,0,0,0,1,.36,7.31,7.31,0,0,0,1.17.09h.49v1.55H57.13v-1.55Zm2.5-24.12a3.08,3.08,0,0,1,.16-1.08,1.84,1.84,0,0,1,.45-.7,1.68,1.68,0,0,1,.66-.38,3.1,3.1,0,0,1,.83-.1,3,3,0,0,1,.81.1,1.58,1.58,0,0,1,.65.38,1.84,1.84,0,0,1,.45.7,3.06,3.06,0,0,1,.17,1.08,3,3,0,0,1-.17,1.07,1.77,1.77,0,0,1-.45.7,1.6,1.6,0,0,1-.65.39,2.69,2.69,0,0,1-.81.12,2.73,2.73,0,0,1-.83-.12,1.7,1.7,0,0,1-.66-.39,1.77,1.77,0,0,1-.45-.7A3,3,0,0,1,60.11,183.15Z" transform="translate(-36 -11.09)"/><path class="cls-1" d="M79.87,208.82H69.26v-1.55h.11a7.34,7.34,0,0,0,1.18-.09,2.41,2.41,0,0,0,1-.36,2,2,0,0,0,.64-.8,3.36,3.36,0,0,0,.25-1.39V193.16a3,3,0,0,0-.25-1.3,1.87,1.87,0,0,0-.65-.76,2.52,2.52,0,0,0-1-.36,7.18,7.18,0,0,0-1.16-.09h-.11v-1.54h5.66l.7,3.64h.18c.24-.55.48-1.07.73-1.55a5,5,0,0,1,.93-1.28,3.86,3.86,0,0,1,1.35-.86,5.67,5.67,0,0,1,2-.31,5.13,5.13,0,0,1,3,.7,2.28,2.28,0,0,1,1,2,3,3,0,0,1-.19,1.06,2.24,2.24,0,0,1-.6.84,3,3,0,0,1-1.06.54,6,6,0,0,1-1.58.18,4.17,4.17,0,0,0-.43-2.19,1.66,1.66,0,0,0-1.51-.68,2,2,0,0,0-1.22.39,3.7,3.7,0,0,0-.94,1A6.56,6.56,0,0,0,76.6,194a12.14,12.14,0,0,0-.45,1.7,15,15,0,0,0-.25,1.73c0,.58-.07,1.1-.07,1.56v5.78a3,3,0,0,0,.24,1.3,1.81,1.81,0,0,0,.66.75,2.49,2.49,0,0,0,1,.33,7.21,7.21,0,0,0,1.16.08h1Z" transform="translate(-36 -11.09)"/><path class="cls-1" d="M96.28,207.27v1.55H86.39v-1.55h.48a6.79,6.79,0,0,0,1.15-.09,2.13,2.13,0,0,0,.9-.36,1.87,1.87,0,0,0,.58-.8,3.8,3.8,0,0,0,.21-1.39V193.16a3.2,3.2,0,0,0-.22-1.3,1.76,1.76,0,0,0-.59-.76,2.13,2.13,0,0,0-.9-.36,6.55,6.55,0,0,0-1.13-.09h-.11v-1.54h5.77l.48,3h.18a8,8,0,0,1,1.17-1.68,4.75,4.75,0,0,1,2.75-1.53,9.36,9.36,0,0,1,1.63-.13,7.77,7.77,0,0,1,1.7.18,5.42,5.42,0,0,1,1.5.57,4.86,4.86,0,0,1,1.24,1,5.13,5.13,0,0,1,.89,1.56h.3a7.66,7.66,0,0,1,1.21-1.68,5.08,5.08,0,0,1,2.9-1.53,9.88,9.88,0,0,1,1.66-.13,7.07,7.07,0,0,1,2.51.42,4.66,4.66,0,0,1,1.88,1.29,5.9,5.9,0,0,1,1.19,2.24,11.48,11.48,0,0,1,.41,3.25v8.68a3.58,3.58,0,0,0,.22,1.39,1.89,1.89,0,0,0,.59.8,2.13,2.13,0,0,0,.9.36,6.55,6.55,0,0,0,1.13.09h.11v1.55h-6.39V196.13a9.75,9.75,0,0,0-.21-2.14,4.29,4.29,0,0,0-.67-1.58,2.85,2.85,0,0,0-1.19-1,4.37,4.37,0,0,0-1.79-.33,3.91,3.91,0,0,0-1.93.44,3.54,3.54,0,0,0-1.27,1.19,5.37,5.37,0,0,0-.69,1.74,10.1,10.1,0,0,0-.21,2.1v8.06A3.78,3.78,0,0,0,105,206a1.89,1.89,0,0,0,.59.8,2.13,2.13,0,0,0,.9.36,6.64,6.64,0,0,0,1.13.09h.11v1.55h-6.39V196.13a9.75,9.75,0,0,0-.21-2.14,4.46,4.46,0,0,0-.66-1.58,3,3,0,0,0-1.2-1,4.37,4.37,0,0,0-1.79-.33,3.92,3.92,0,0,0-2,.48,3.76,3.76,0,0,0-1.32,1.31,5.74,5.74,0,0,0-.72,1.91,11.8,11.8,0,0,0-.21,2.26v7.75a3,3,0,0,0,.24,1.3,1.72,1.72,0,0,0,.65.75,2.49,2.49,0,0,0,1,.33,7.21,7.21,0,0,0,1.16.08Z" transform="translate(-36 -11.09)"/><path class="cls-1" d="M130,190.58a4.16,4.16,0,0,0-1.71.3,2.28,2.28,0,0,0-1,.83,3.19,3.19,0,0,0-.5,1.27,10.1,10.1,0,0,0-.12,1.6,4.26,4.26,0,0,1-2.33-.52,2,2,0,0,1-.8-1.79,2.58,2.58,0,0,1,.52-1.62,4,4,0,0,1,1.43-1.09,8.19,8.19,0,0,1,2.11-.61,15,15,0,0,1,2.57-.2,11.68,11.68,0,0,1,2.94.33,4.9,4.9,0,0,1,2.1,1.09,4.58,4.58,0,0,1,1.27,2,9.16,9.16,0,0,1,.42,3v9.53a5.09,5.09,0,0,0,.13,1.28,1.92,1.92,0,0,0,.39.81,1.55,1.55,0,0,0,.71.43,4,4,0,0,0,1.05.12h.11v1.55h-5l-.57-3.16h-.3c-.39.51-.76,1-1.12,1.42a6.49,6.49,0,0,1-1.18,1.11,5.32,5.32,0,0,1-1.47.73,6.6,6.6,0,0,1-2,.26,7.2,7.2,0,0,1-2.27-.35,5,5,0,0,1-1.82-1.08,5.23,5.23,0,0,1-1.19-1.83,7.14,7.14,0,0,1-.43-2.61A4.91,4.91,0,0,1,124,199a12,12,0,0,1,6.3-1.54l3.06-.11V195.1a14.59,14.59,0,0,0-.11-1.82,3.6,3.6,0,0,0-.47-1.43,2.35,2.35,0,0,0-1-.94A4.15,4.15,0,0,0,130,190.58Zm-4.45,12.91a3.86,3.86,0,0,0,.73,2.57,2.79,2.79,0,0,0,2.25.85,5.63,5.63,0,0,0,2-.35,4.27,4.27,0,0,0,2.52-2.64,6.2,6.2,0,0,0,.35-2.12v-3l-2.36.11a10.63,10.63,0,0,0-2.61.38,4.57,4.57,0,0,0-1.69.88,3.14,3.14,0,0,0-.93,1.39A5.86,5.86,0,0,0,125.5,203.49Z" transform="translate(-36 -11.09)"/><path class="cls-1" d="M151.75,208.82v-1.55h.46a7.34,7.34,0,0,0,1.18-.09,2.52,2.52,0,0,0,1-.36,2,2,0,0,0,.65-.8,3.56,3.56,0,0,0,.23-1.39V186.76a3.56,3.56,0,0,0-.23-1.39,2,2,0,0,0-.65-.8,2.52,2.52,0,0,0-1-.36,7.34,7.34,0,0,0-1.18-.09h-.46v-1.55h10.7v1.55H162a7.21,7.21,0,0,0-1.16.08,2.35,2.35,0,0,0-1,.35,1.87,1.87,0,0,0-.65.76,3,3,0,0,0-.25,1.3V207h7.26a3.06,3.06,0,0,0,1.41-.3,2.92,2.92,0,0,0,1-.77,3.82,3.82,0,0,0,.58-1.07,5.76,5.76,0,0,0,.28-1.18l.36-2.75h1.92l-.25,7.9Z" transform="translate(-36 -11.09)"/><path class="cls-1" d="M183.81,209.18a9.12,9.12,0,0,1-3.59-.68,7.17,7.17,0,0,1-2.68-2,9,9,0,0,1-1.68-3.17,14.3,14.3,0,0,1-.58-4.26c0-3.44.71-6,2.12-7.76a7.34,7.34,0,0,1,6-2.6,8.77,8.77,0,0,1,3.2.55A6.43,6.43,0,0,1,189,191a7.69,7.69,0,0,1,1.52,2.75,12.59,12.59,0,0,1,.53,3.82v1.68H178.83a15.34,15.34,0,0,0,.41,3.46,6.71,6.71,0,0,0,1.06,2.38,4.13,4.13,0,0,0,1.69,1.37,5.82,5.82,0,0,0,2.32.44,6.71,6.71,0,0,0,1.77-.22,6.51,6.51,0,0,0,1.48-.57,6,6,0,0,0,1.17-.82,4.67,4.67,0,0,0,.84-1,1.17,1.17,0,0,1,.47.45,1.45,1.45,0,0,1,.23.81,2.22,2.22,0,0,1-.4,1.19,3.86,3.86,0,0,1-1.2,1.18,7.43,7.43,0,0,1-2,.9A10,10,0,0,1,183.81,209.18Zm-.45-18.46a3.56,3.56,0,0,0-3.15,1.66,9.91,9.91,0,0,0-1.3,4.86h8.45a15.51,15.51,0,0,0-.21-2.66,7,7,0,0,0-.69-2.06,3.37,3.37,0,0,0-1.23-1.33A3.53,3.53,0,0,0,183.36,190.72Z" transform="translate(-36 -11.09)"/><path class="cls-1" d="M207,191.73a.84.84,0,0,0-.57-.87,4.11,4.11,0,0,0-1.41-.21H205v-1.54h8v1.54h-.32a5,5,0,0,0-1,.09,2.71,2.71,0,0,0-.86.34,4.47,4.47,0,0,0-.87.72,13.14,13.14,0,0,0-1,1.2l-3.79,5.05,5.4,7.27a5.83,5.83,0,0,0,1.54,1.51,2.64,2.64,0,0,0,1.41.44H214v1.55h-9.5v-1.55h.18c1.48,0,2.21-.4,2.21-1.22a1.9,1.9,0,0,0,0-.4,2.2,2.2,0,0,0-.22-.49c-.11-.18-.25-.41-.43-.67s-.41-.59-.7-1l-2.46-3.3-2.56,3.59a6,6,0,0,0-.35.5c-.12.19-.22.39-.32.59a5.19,5.19,0,0,0-.23.62,2.18,2.18,0,0,0-.09.6.91.91,0,0,0,.52.89,4.15,4.15,0,0,0,1.76.26h.11v1.55h-8.76v-1.55h.34a5.7,5.7,0,0,0,1.16-.1,3.15,3.15,0,0,0,.95-.38,4.44,4.44,0,0,0,.9-.73,12.68,12.68,0,0,0,1-1.14l4.63-6-4.63-6.32a7.68,7.68,0,0,0-1.57-1.46,2.89,2.89,0,0,0-1.59-.5h-.48v-1.54h9.33v1.54H203a5.94,5.94,0,0,0-1,.08,1.89,1.89,0,0,0-.65.23.9.9,0,0,0-.32.36,1,1,0,0,0-.09.41,1.39,1.39,0,0,0,.23.74c.15.25.36.56.63.95l2.43,3.3,1.9-2.75a8.5,8.5,0,0,0,.66-1.18A2.57,2.57,0,0,0,207,191.73Z" transform="translate(-36 -11.09)"/><path class="cls-1" d="M70.5,220.65l-8.13,17.66h1.9l2.18-4.83h9.64l2.2,4.83h1.9l-8.12-17.66Zm4.89,11.27H67.17l4.1-9Z" transform="translate(-36 -11.09)"/><path class="cls-1" d="M88.94,224.91a6,6,0,0,0-5,2.4v-7.69H82.27v18.69h1.67v-2.38a6.06,6.06,0,0,0,5,2.47,6.75,6.75,0,0,0,0-13.49Zm4.85,6.75a4.87,4.87,0,0,1-4.92,5.14,5.15,5.15,0,0,1,0-10.29A4.88,4.88,0,0,1,93.79,231.66Z" transform="translate(-36 -11.09)"/><path class="cls-1" d="M104.06,224.91a6.75,6.75,0,1,0,6.65,6.75A6.48,6.48,0,0,0,104.06,224.91Zm4.9,6.75a4.91,4.91,0,1,1-4.9-5.15A4.8,4.8,0,0,1,109,231.66Z" transform="translate(-36 -11.09)"/><path class="cls-1" d="M124.35,227.29a6.21,6.21,0,0,0-5.12-2.38,6.47,6.47,0,1,0,0,12.93,6.22,6.22,0,0,0,5.07-2.34v1.33c0,3.27-1.46,4.73-4.75,4.73a7.29,7.29,0,0,1-5-1.8l-.21-.19-1,1.33.15.15a8.67,8.67,0,0,0,6,2.11c4.34,0,6.45-2.12,6.45-6.48V225h-1.68Zm-5,9a4.87,4.87,0,1,1,5-4.88A4.71,4.71,0,0,1,119.33,236.24Z" transform="translate(-36 -11.09)"/><path class="cls-1" d="M135.29,224.91a8,8,0,0,0-5.29,1.88l-.17.14.9,1.31.21-.2a6.41,6.41,0,0,1,4.25-1.55c2.35,0,3.55,1.14,3.55,3.4v.78H134.6c-4.38,0-5,2.4-5,3.83,0,2.37,1.91,3.9,4.86,3.9a5.42,5.42,0,0,0,4.36-1.81v1.72h1.67v-8.37C140.46,226.7,138.62,224.91,135.29,224.91Zm3.45,7.22v2.1a4.15,4.15,0,0,1-4.14,2.67c-2.1,0-3.31-.89-3.31-2.45s1.13-2.32,3.33-2.32Z" transform="translate(-36 -11.09)"/><path class="cls-1" d="M155.18,227.35a6,6,0,0,0-5-2.44,6.75,6.75,0,0,0,0,13.49,5.94,5.94,0,0,0,5-2.46v2.37h1.7V219.62h-1.73Zm0,4.31a4.9,4.9,0,1,1-4.9-5.15A4.8,4.8,0,0,1,155.18,231.66Z" transform="translate(-36 -11.09)"/><path class="cls-1" d="M166.83,224.91a6.75,6.75,0,1,0,6.65,6.75A6.48,6.48,0,0,0,166.83,224.91Zm4.9,6.75a4.91,4.91,0,1,1-4.9-5.15A4.81,4.81,0,0,1,171.73,231.66Z" transform="translate(-36 -11.09)"/><path class="cls-1" d="M180.74,230.94c-2-.37-3.66-.69-3.66-2.3,0-1.37,1.22-2.15,3.35-2.15a6.33,6.33,0,0,1,3.7,1.1l.23.17.81-1.42-.18-.13a8.12,8.12,0,0,0-4.54-1.3c-3.1,0-5.1,1.47-5.1,3.76,0,2.91,2.61,3.39,4.92,3.82,1.91.36,3.56.67,3.56,2.18s-1.18,2.16-3.52,2.16a7.16,7.16,0,0,1-4.45-1.49l-.23-.19-.81,1.41.14.13a8.32,8.32,0,0,0,5.3,1.71c3.27,0,5.3-1.44,5.3-3.75C185.56,231.86,183,231.37,180.74,230.94Z" transform="translate(-36 -11.09)"/></svg>